{"title":"Psychosis 2010 DVDrip English Klam","uid":6481054,"size":1476020355,"categoryP":"video","categoryS":"movies","magnet":"?xt=urn:btih:d83b411add6817134be609c0e8df7626b94b3cb8&amp;dn=Psychosis+2010+DVDrip+English+Klam&amp;tr=udp%3A%2F%2Ftracker.openbittorrent.com%3A80&amp;tr=udp%3A%2F%2Fopen.demonii.com%3A1337&amp;tr=udp%3A%2F%2Ftracker.coppersurfer.tk%3A6969&amp;tr=udp%3A%2F%2Fexodus.desync.com%3A6969","seeders":0,"leechers":0,"uploader":"Klambake","files":-1,"time":1308517205,"description":"With: Charisma Carpenter, Paul Sculfor en Ricci Harnett\n\nIn 1992 trotseert een groep jonge anarchisten de sneeuwbedekte wildernis, om vanuit hun basis daar actie te voeren tegen de aanleg van een autowegomleiding. Een verschrikkelijk lot wachtte hen. 15 Jaar later verhuist een succesvolle horrorschrijfster, de gevoelige Susan, van CaliforniÃƒÂ« naar het Engelse platteland, op zoek naar rust. De pas gehuwde vindt die in het idyllische afgelegen Hamlet. Daar begint voor Susan een ware nachtmerrie\n\nA serial killer unleashes his blood lust at a remote environmental-camp. Years later a horror novelist relocates to rural England and is plagued to the point of madness by horrific hauntings of a massacre. \n\n------------------ Dutch Friends ------------------\n\nYou can find my Friends at: http://www.Film-Test.nl \n                    \n------ They got my dutchs subs ---- and more ------\n\nGeneral:\n\nComplete name                    : Psychosis\\Psychosis.avi\nFormat                           : AVI\nFormat/Info                      : Audio Video Interleave\nFile size                        : 1.37 GiB\nDuration                         : 1h 29mn\nOverall bit rate                 : 2 193 Kbps\n\nVideo:\n\nFormat                           : MPEG-4 Visual\nFormat profile                   : Simple@L3\nFormat settings, BVOP            : No\nFormat settings, QPel            : No\nFormat settings, GMC             : No warppoints\nFormat settings, Matrix          : Default (H.263)\nCodec ID                         : XVID\nCodec ID/Hint                    : XviD\nDuration                         : 1h 29mn\nBit rate                         : 1 734 Kbps\nWidth                            : 704 pixels\nHeight                           : 396 pixels\nDisplay aspect ratio             : 16:9\nFrame rate                       : 25.000 fps\nColor space                      : YUV\nChroma subsampling               : 4:2:0\nBit depth                        : 8 bits\nScan type                        : Progressive\nBits/(Pixel*Frame)               : 0.249\nStream size                      : 1.08 GiB (79%)\nWriting library                  : XviD 1.1.2 (UTC 2006-11-01)\n\nAudio:\n\nFormat                           : AC-3\nFormat/Info                      : Audio Coding 3\nMode extension                   : CM (complete main)\nCodec ID                         : 2000\nDuration                         : 1h 29mn\nBit rate mode                    : Constant\nBit rate                         : 448 Kbps\nChannel(s)                       : 6 channels\nChannel positions                : Front: L C R, Side: L R, LFE\nSampling rate                    : 48.0 KHz\nBit depth                        : 16 bits\nStream size                      : 287 MiB (20%)\nAlignment                        : Aligned on interleaves\nInterleave, duration             : 32 ms (0.80 video frame)\nInterleave, preload duration     : 608 ms\n\n","torrent":{"xt":"urn:btih:d83b411add6817134be609c0e8df7626b94b3cb8","amp;dn":"Psychosis+2010+DVDrip+English+Klam","amp;tr":["udp%3A%2F%2Ftracker.openbittorrent.com%3A80","udp%3A%2F%2Fopen.demonii.com%3A1337","udp%3A%2F%2Ftracker.coppersurfer.tk%3A6969","udp%3A%2F%2Fexodus.desync.com%3A6969"],"infoHash":"d83b411add6817134be609c0e8df7626b94b3cb8","infoHashBuffer":{"type":"Buffer","data":[216,59,65,26,221,104,23,19,75,230,9,192,232,223,118,38,185,75,60,184]},"announce":[],"urlList":[]}}